<?xml version="1.0" encoding="utf-8"?>
<!-- Generator: Adobe Illustrator 19.1.0, SVG Export Plug-In . SVG Version: 6.00 Build 0)  -->
<svg version="1.1" id="Layer_1" xmlns="http://www.w3.org/2000/svg" xmlns:xlink="http://www.w3.org/1999/xlink" x="0px" y="0px"
	 viewBox="522 266 772 250" style="enable-background:new 522 266 772 250;" xml:space="preserve">
<style type="text/css">
	.st0{fill:#E6E6E6;}
	.st1{fill:#42A2CE;}
	.st2{fill:#A1E5E3;}
	.st3{fill:#9C5C8F;}
	.st4{fill:#FFFFFF;}
	.st5{fill:#010101;}
	.st6{fill:#231F20;}
	.st7{fill:#989898;}
	.st8{fill:#1E1E1E;}
	.st9{fill:#29B7D6;}
	.st10{fill:#0783B4;}
</style>
<rect x="522" y="266" class="st0" width="192" height="170"/>
<rect x="714" y="266" class="st1" width="290" height="170"/>
<rect x="1004" y="266" class="st2" width="290" height="170"/>
<g>
	<path class="st3" d="M741.9,325.8h68.9c4.4,0,7.9,3.6,7.9,7.9V360c0,4.4-3.5,7.9-7.9,7.9H786l3.4,8.3l-14.9-8.4h-32.7
		c-4.3,0-7.9-3.6-7.9-7.9v-26.3C734,329.4,737.5,325.8,741.9,325.8z"/>
	<path class="st4" d="M738.2,333c0.5-0.6,1.2-1,2.2-1c1.8-0.2,2.8,0.7,3,2.5c1,7.2,2.2,13.3,3.5,18.4l7.6-14.5
		c0.7-1.3,1.6-2,2.6-2.1c1.6-0.1,2.5,0.9,2.9,2.9c0.9,4.6,2,8.5,3.3,11.8c0.9-8.8,2.5-15.1,4.6-19c0.5-1,1.3-1.5,2.3-1.5
		c0.8-0.1,1.5,0.1,2.1,0.7c0.7,0.6,1,1.2,1.1,2c0,0.6-0.1,1.1-0.4,1.6c-1.4,2.5-2.5,6.7-3.4,12.5c-0.8,5.6-1.2,10-1,13.2
		c0.1,0.8-0.1,1.6-0.4,2.3c-0.5,0.8-1,1.2-1.9,1.2c-0.9,0.1-1.8-0.4-2.7-1.3c-3.2-3.3-5.8-8.2-7.6-14.8c-2.2,4.4-3.9,7.8-5,9.9
		c-2,3.9-3.8,5.9-5.2,6c-1,0.1-1.8-0.7-2.5-2.4c-1.8-4.5-3.6-13.3-5.7-26.2C737.6,334.4,737.8,333.6,738.2,333z"/>
	<path class="st4" d="M812.7,338.4c-1.2-2.1-3.1-3.5-5.6-4c-0.6-0.1-1.3-0.2-1.8-0.2c-3.3,0-6,1.8-8.2,5.2c-1.8,3-2.7,6.2-2.7,9.8
		c0,2.7,0.5,5,1.6,6.9c1.2,2.1,3,3.5,5.5,4c0.7,0.1,1.3,0.2,1.8,0.2c3.4,0,6.1-1.8,8.2-5.2c1.8-3,2.7-6.2,2.7-9.8
		C814.4,342.5,813.8,340.2,812.7,338.4L812.7,338.4z M808.3,348c-0.5,2.3-1.4,4-2.6,5.1c-1,0.9-2,1.3-2.8,1.1
		c-0.8-0.1-1.5-0.9-2-2.2c-0.5-1-0.7-2.1-0.7-3.1c0-0.9,0.1-1.8,0.2-2.5c0.3-1.4,0.9-2.8,1.8-4.1c1.2-1.7,2.4-2.4,3.6-2.2
		c0.9,0.2,1.5,0.9,2,2.2c0.5,1.1,0.7,2.2,0.7,3.2C808.6,346.4,808.5,347.2,808.3,348L808.3,348z"/>
	<path class="st4" d="M791,338.4c-1.2-2.1-3.1-3.5-5.5-4c-0.6-0.1-1.3-0.2-1.9-0.2c-3.3,0-6,1.8-8.1,5.2c-1.8,3-2.7,6.2-2.7,9.8
		c0,2.7,0.6,5,1.7,6.9c1.2,2.1,3,3.5,5.5,4c0.6,0.1,1.3,0.2,1.9,0.2c3.3,0,6-1.8,8.1-5.2c1.8-3,2.7-6.2,2.7-9.8
		C792.7,342.5,792.1,340.2,791,338.4L791,338.4z M786.6,348c-0.4,2.3-1.3,4-2.6,5.1c-1,0.9-2,1.3-2.8,1.1c-0.8-0.1-1.5-0.9-2-2.2
		c-0.5-1-0.6-2.1-0.6-3.1c0-0.9,0.1-1.8,0.2-2.5c0.3-1.4,0.9-2.8,1.8-4.1c1.2-1.7,2.3-2.4,3.6-2.2c0.9,0.2,1.6,0.9,2.1,2.2
		c0.4,1.1,0.6,2.2,0.6,3.2C786.9,346.4,786.8,347.2,786.6,348L786.6,348z"/>
	<g>
		<g>
			<path class="st5" d="M827.5,338.1c-2.3,2.3-3.5,5.2-3.5,8.8c0,3.8,1.1,6.9,3.5,9.1c2.3,2.3,5.3,3.5,9,3.5c1,0,2.3-0.1,3.6-0.5
				v-5.6c-1.2,0.4-2.2,0.5-3.1,0.5c-1.9,0-3.3-0.6-4.4-1.9c-1.1-1.2-1.7-2.9-1.7-5c0-2,0.5-3.6,1.6-4.9c1.1-1.3,2.5-1.9,4.2-1.9
				c1,0,2.2,0.1,3.5,0.5v-5.6c-1.1-0.3-2.5-0.5-3.8-0.5C832.8,334.7,829.8,335.8,827.5,338.1z M851.5,334.7c-3.2,0-5.7,1-7.5,3.2
				c-1.8,2.1-2.7,5.1-2.7,8.9c0,4.2,0.9,7.3,2.7,9.5c1.8,2.1,4.3,3.3,7.8,3.3c3.3,0,5.8-1.1,7.6-3.3s2.7-5.3,2.7-9.2
				c0-3.9-0.9-7-2.7-9.1C857.5,335.8,854.9,334.7,851.5,334.7z M854.2,352.6c-0.7,1-1.6,1.5-2.7,1.5s-2-0.5-2.5-1.5
				c-0.6-1-0.9-2.9-0.9-5.9c0-4.5,1.2-6.8,3.5-6.8c2.4,0,3.6,2.3,3.6,6.9C855.2,349.8,854.9,351.8,854.2,352.6z M879.1,335.4
				l-1.2,5.3c-0.3,1.4-0.6,2.7-0.9,4.1l-0.7,3.7c-0.7-3.7-1.6-8.1-2.7-13.1h-8l-3,23.6h6l1.6-16.2l4.2,16.2h4.3l4-16.2l1.7,16.2h6.3
				l-3.2-23.6H879.1L879.1,335.4z M908,335.4l-1.2,5.3c-0.3,1.4-0.7,2.7-0.9,4.1l-0.7,3.7c-0.7-3.7-1.6-8.1-2.7-13.1h-8l-3,23.6h6
				l1.6-16.2l4.2,16.2h4.3l3.9-16.2L913,359h6.3l-3.2-23.6C916.1,335.4,908,335.4,908,335.4z M927.5,349.6h5.6v-4.9h-5.6v-4.4h6.5
				v-5h-12.9V359H934v-5h-6.5L927.5,349.6L927.5,349.6z M952,345.9c0.6-1.1,1-2.1,1-3.3c0-2.2-0.9-4-2.6-5.3s-4.1-2-7.1-2h-7.4v23.6
				h6.4v-10.8h0.1l5.2,10.8h6.8l-5.1-10.6C950.4,347.7,951.4,346.9,952,345.9z M942.2,345.5v-5.6c1.5,0,2.6,0.3,3.2,0.8
				c0.7,0.4,1,1.2,1,2.4C946.5,344.6,945,345.5,942.2,345.5z M956.8,338.1c-2.3,2.3-3.5,5.2-3.5,8.8c0,3.8,1.1,6.9,3.5,9.1
				c2.3,2.3,5.3,3.5,9,3.5c1,0,2.3-0.1,3.6-0.5v-5.6c-1.2,0.4-2.2,0.5-3.1,0.5c-1.9,0-3.3-0.6-4.4-1.9c-1.1-1.2-1.7-2.9-1.7-5
				c0-2,0.5-3.6,1.6-4.9c1.1-1.3,2.5-1.9,4.2-1.9c1,0,2.2,0.1,3.5,0.5v-5.6c-1.1-0.3-2.5-0.5-3.8-0.5
				C962,334.7,959,335.8,956.8,338.1z M977.4,353.9v-4.3h5.6v-4.9h-5.6v-4.4h6.5v-5H971v23.6h13v-5H977.4L977.4,353.9z"/>
		</g>
	</g>
</g>
<g>
	<path class="st5" d="M671.1,287h-96.7c-2.6,0-4.7,2.1-4.7,4.6v0.2c1.2-1.2,2.8-1.9,4.7-1.9h0.2l16.3,4H656c2.5,0,4.6,2.1,4.6,4.6
		v3.5h11.8c0,0,1,0,1,0.8c0,0.8-1,0.8-1,0.8h-41.2l13.1,3.2h19.2c2.5,0,4.6,2.1,4.6,4.6v3.5h4.1c0,0,1,0,1,0.8c0,0.8-1,0.8-1,0.8
		h-15.5v57.1h14.4c2.5,0,4.7-2.1,4.7-4.6v-77.5C675.8,289.1,673.7,287,671.1,287z"/>
	<g>
		<path class="st5" d="M650.1,310.2L574.3,292c-2.5,0-4.6,2.1-4.6,4.6v42.5c2.8-9.4,10.5-16.8,19.9-18.1c1-0.2,2.2-0.2,3.2-0.2
			c11.8,0,21.2,9.8,21.2,22.3v13.4l7.9,4.8v36.6l28.1,8.8c2.5,0,4.7-2.1,4.7-4.6v-87C654.8,312.4,652.7,310.2,650.1,310.2z
			 M625.5,347.4c-2.8-0.6-5.1-3.5-5.1-6.4s2.3-4.6,5.1-4c2.8,0.6,5.2,3.5,5.2,6.4S628.3,348,625.5,347.4z M646.3,337.1
			c-0.1,5.1-0.4,10.4-2.3,14.6c-0.5,1-1,2.1-2.3,1.6c-4.9-1.8-4.8-11-6.4-15.1c-1-2.4-3.6-6.1-5.7-7.5c-1.9-1.3-3.8-1.8-5.9-1.7
			c-1.9,0.1-3.4,0.6-4.9,1.6c-0.5,0.4-1,0.9-1.4,1.4c-0.9,1.3-1.9,2.1-2.6,0c-1.3-4.9-1.5-10.1,0.8-13.8c1.7-2.6,4.9-5,8.6-3.1
			c0.8,0.4,1.4,0.9,2,1.6c4.8,5.2,6,12.8,12,17.1c3.1,2.2,4.5-2.9,6.7-3.8C646.7,329.4,646.3,336.9,646.3,337.1z"/>
		<path class="st6" d="M592.8,332.8c-0.4,0-0.8,0-1.2,0.1c-5.4,0.8-9.8,6.4-9.8,12.5v11.1l3.5-0.6h15.5V342
			C600.8,336.6,597.5,332.8,592.8,332.8z"/>
	</g>
	<path class="st7" d="M612.2,343c-0.1-11.4-8.6-20.4-19.3-20.4c-0.9,0-1.9,0.1-2.9,0.2c-10.9,1.6-19.4,12-19.4,23.7v14.6
		c0,1.2,2.1,2.3,4.7,2.3s4.6-1,4.6-2.3v-15.8c0-7,5.1-13.4,11.4-14.4c6.3-0.9,11.5,4,11.5,11v15.7c0,1.2,2.1,2.3,4.7,2.3
		c2.5,0,4.6-1,4.6-2.3V343H612.2z"/>
	<g>
		<polygon class="st7" points="602.2,369.2 614.8,386.6 602.2,415 620,404.2 620,362.2 		"/>
		<polygon class="st7" points="602.2,369.2 569.8,369.2 569.8,415 602.2,415 584.8,393 		"/>
	</g>
	<path class="st7" d="M614,358.4c-0.5,2-3.1,3.4-6.5,3.4c-3.7,0-6.5-1.7-6.6-4l0,0h-15.4l-3.7,0.6v2.7c0,2.4-2.8,4.2-6.6,4.2
		s-6.6-1.8-6.6-4.2v-0.4l-8.3,1.5V408l7.5,6.2v-46.9h34l0,0L618,361L614,358.4z"/>
	<path class="st7" d="M602.2,372.5L587.3,393l14.4,18.2l10.8-24.4L602.2,372.5z M598.6,402.1l1.1-10.4c-1.5-0.8-2.5-2.7-2.5-4.8
		c0-2.9,1.8-5.2,4-5.2s4,2.4,4,5.2c0,1.9-0.8,3.5-1.9,4.4l1.4,8.9L598.6,402.1z"/>
</g>
<rect x="522" y="436" class="st8" width="772" height="80"/>
<g>
	
		<image style="overflow:visible;enable-background:new    ;" width="834" height="169" xlink:href="../../../Desktop/_IMG/razorpay/razor-text.png"  transform="matrix(0.2576 0 0 0.2576 1059.203 341.4243)">
	</image>
	<g>
		<polygon class="st9" points="1075.6,317 1049.7,335.6 1044.2,348.6 1057,339.4 1041.8,375.1 1050.7,375.1 		"/>
		<polygon class="st9" points="1044.2,348.6 1031.3,357.8 1024,375.1 1032.9,375.1 		"/>
		<polygon class="st10" points="1057,339.4 1044.2,348.6 1032.9,375.1 1041.8,375.1 		"/>
	</g>
</g>
</svg>
