<?xml version="1.0" encoding="utf-8"?>
<!-- Generator: Adobe Illustrator 19.1.0, SVG Export Plug-In . SVG Version: 6.00 Build 0)  -->
<svg version="1.1" id="Layer_2" xmlns="http://www.w3.org/2000/svg" xmlns:xlink="http://www.w3.org/1999/xlink" x="0px" y="0px"
	 viewBox="-121 -112 256 256" style="enable-background:new -121 -112 256 256;" xml:space="preserve">
<style type="text/css">
	.st0{fill:#93E2DE;}
	.st1{fill:#42A2CE;}
	.st2{fill:#9C5C8F;}
	.st3{fill:#FFFFFF;}
	.st4{fill:#2BB7D6;}
	.st5{fill:#1083B4;}
</style>
<rect x="-121" y="16" class="st0" width="256" height="128"/>
<rect x="-121" y="-112" class="st1" width="256" height="128"/>
<g>
	<path class="st2" d="M-73.7-104.4H88.9c10.3,0,18.6,8.4,18.6,18.6v62.1c0,10.3-8.4,18.6-18.6,18.6H30.4l8,19.6L3.2-5.2h-77.1
		c-10.3,0-18.6-8.4-18.6-18.6v-62.1C-92.4-95.9-84-104.4-73.7-104.4z"/>
	<path class="st3" d="M-82.4-87.4c1.1-1.5,2.8-2.4,5.1-2.5c4.1-0.4,6.5,1.7,7.1,5.9c2.5,17.1,5.3,31.5,8.3,43.4L-44-74.7
		c1.7-3.1,3.8-4.7,6.1-5c3.7-0.2,5.8,2,6.7,6.8c2,10.9,4.6,20.1,7.8,28c2.1-20.8,5.8-35.6,10.7-45c1.2-2.4,3.1-3.4,5.4-3.7
		c1.9-0.2,3.7,0.4,5.1,1.7c1.5,1.3,2.4,2.8,2.5,4.6c0.1,1.5-0.2,2.7-0.8,3.9c-3.2,5.9-5.8,15.8-7.9,29.5c-2,13.3-2.8,23.7-2.4,31.1
		c0.2,2-0.2,3.8-1.1,5.4c-1.1,1.8-2.4,2.8-4.4,3c-2.1,0.2-4.4-0.8-6.4-3.1c-7.6-7.8-13.7-19.3-17.9-34.8
		c-5.3,10.5-9.2,18.3-11.8,23.5c-4.8,9.2-9,13.9-12.4,14.2c-2.2,0.2-4.1-1.7-5.8-5.7c-4.1-10.7-8.6-31.4-13.5-62
		C-83.9-84.1-83.4-86-82.4-87.4z"/>
	<path class="st3" d="M93.2-74.7c-2.9-5.1-7.2-8.3-13.1-9.4c-1.5-0.4-3.1-0.5-4.4-0.5c-7.8,0-14.2,4.1-19.2,12.3
		c-4.2,7-6.4,14.6-6.4,23c0,6.4,1.3,11.7,3.9,16.2c2.9,5.1,7.2,8.3,13.1,9.4c1.5,0.4,3.1,0.5,4.4,0.5c7.9,0,14.3-4.1,19.2-12.3
		c4.2-7.1,6.4-14.6,6.4-23.1C97.4-64.9,95.9-70.3,93.2-74.7L93.2-74.7z M83-51.9c-1.1,5.4-3.2,9.4-6.3,12c-2.4,2.1-4.6,3.1-6.6,2.6
		c-2-0.4-3.7-2.1-4.8-5.3c-1.1-2.5-1.5-5.1-1.5-7.4c0-2,0.2-4.1,0.6-5.9c0.7-3.3,2.1-6.6,4.4-9.8c2.7-4,5.5-5.7,8.5-5.1
		c2,0.4,3.7,2.1,4.8,5.3c1.1,2.5,1.5,5.1,1.5,7.4C83.7-55.9,83.4-53.9,83-51.9L83-51.9z"/>
	<path class="st3" d="M42.1-74.7c-2.9-5.1-7.3-8.3-13.1-9.4c-1.5-0.4-3.1-0.5-4.4-0.5c-7.8,0-14.2,4.1-19.2,12.3
		c-4.2,7-6.4,14.6-6.4,23c0,6.4,1.3,11.7,3.9,16.2c2.9,5.1,7.2,8.3,13.1,9.4c1.5,0.4,3.1,0.5,4.4,0.5c7.9,0,14.3-4.1,19.2-12.3
		c4.2-7.1,6.4-14.6,6.4-23.1C46-64.9,44.7-70.3,42.1-74.7L42.1-74.7z M31.7-51.9c-1.1,5.4-3.2,9.4-6.3,12c-2.4,2.1-4.6,3.1-6.6,2.6
		c-2-0.4-3.7-2.1-4.8-5.3c-1.1-2.5-1.5-5.1-1.5-7.4c0-2,0.2-4.1,0.6-5.9c0.7-3.3,2.1-6.6,4.4-9.8c2.7-4,5.5-5.7,8.5-5.1
		c2,0.4,3.7,2.1,4.8,5.3c1.1,2.5,1.5,5.1,1.5,7.4C32.5-55.9,32.2-53.9,31.7-51.9L31.7-51.9z"/>
</g>
<g>
	<polygon class="st4" points="60.3,20 6.8,58.5 -4.6,85.2 22,66.2 -9.5,140 8.9,140 	"/>
	<polygon class="st4" points="-4.6,85.2 -31.1,104.3 -46.3,140 -27.9,140 	"/>
	<polygon class="st5" points="22,66.2 -4.6,85.2 -27.9,140 -9.5,140 	"/>
</g>
</svg>
